<?xml version="1.0" standalone="no"?>
<!DOCTYPE svg PUBLIC "-//W3C//DTD SVG 20010904//EN"
 "http://www.w3.org/TR/2001/REC-SVG-20010904/DTD/svg10.dtd">
<svg version="1.0" xmlns="http://www.w3.org/2000/svg"
 width="633.000000pt" height="639.000000pt" viewBox="0 0 633.000000 639.000000"
 preserveAspectRatio="xMidYMid meet">

<g transform="translate(0.000000,639.000000) scale(0.100000,-0.100000)"
fill="#000000" stroke="none">
<path d="M4002 4494 c-92 -48 -244 -126 -337 -175 l-171 -88 -99 53 c-347 183
-557 286 -583 286 -41 0 -58 -8 -402 -187 -168 -88 -322 -168 -344 -178 -21
-10 -47 -32 -57 -49 -18 -30 -19 -66 -19 -847 l0 -816 23 -34 c12 -18 34 -39
47 -46 56 -28 36 -37 577 243 l162 84 340 -170 c187 -93 348 -170 357 -170 10
0 146 65 303 144 424 214 462 236 488 275 l23 34 0 816 c0 792 -1 817 -20 848
-21 34 -66 63 -100 63 -11 0 -96 -39 -188 -86z m-840 -115 l333 -171 130 67
c71 36 221 113 331 171 201 104 241 117 284 94 44 -23 43 -16 41 -875 -2 -756
-3 -822 -19 -844 -23 -31 -725 -391 -764 -391 -18 0 -160 66 -357 165 -181 91
-334 165 -341 165 -7 0 -99 -45 -204 -99 -477 -247 -472 -245 -507 -235 -18 5
-41 22 -53 37 -21 28 -21 31 -21 847 l0 819 22 22 c32 32 733 397 765 398 16
1 157 -66 360 -170z"/>
<path d="M2595 4234 c-110 -58 -242 -126 -292 -152 l-93 -47 0 -672 c0 -370 3
-673 7 -673 7 0 426 215 519 266 l61 34 349 -177 349 -177 298 153 297 152 0
675 0 674 -62 -33 c-35 -19 -162 -85 -283 -147 -227 -116 -243 -126 -233 -136
4 -3 127 57 274 133 148 76 272 140 276 141 4 2 8 -288 8 -645 l0 -648 -288
-147 -288 -146 -340 173 c-186 96 -345 174 -352 175 -7 0 -133 -63 -281 -140
-148 -77 -273 -140 -280 -140 -8 0 -11 170 -11 644 l0 644 279 146 c154 80
286 146 294 146 8 0 124 -57 257 -126 133 -69 245 -123 248 -120 3 4 1 10 -4
15 -14 13 -491 261 -500 260 -5 0 -99 -48 -209 -105z"/>
<path d="M2867 4066 c-47 -17 -107 -63 -107 -82 0 -18 10 -18 46 1 44 23 98
19 131 -9 25 -21 28 -31 31 -97 l3 -74 -110 -74 c-61 -40 -111 -77 -111 -81 0
-4 12 -11 28 -14 15 -4 50 -22 77 -40 69 -45 115 -130 115 -210 0 -52 -2 -56
-23 -56 -41 0 -141 -58 -201 -116 -31 -31 -55 -59 -52 -62 4 -3 23 4 44 15 46
26 133 51 192 55 l45 3 2 -115 1 -115 106 -3 106 -3 0 117 0 117 41 -7 c23 -4
74 -19 114 -35 l71 -27 87 82 87 83 0 238 c0 140 -5 254 -11 277 -17 61 -55
110 -127 164 -107 79 -98 78 -178 22 -38 -27 -72 -49 -76 -50 -5 0 -8 21 -8
46 0 69 -24 52 -28 -19 -2 -48 -7 -60 -27 -73 -31 -20 -41 -13 -48 33 -8 44
-46 89 -93 109 -41 17 -78 17 -127 0z m431 -113 c117 -73 162 -125 162 -191 0
-38 -3 -42 -43 -61 -57 -27 -135 -28 -187 -1 l-40 20 0 104 c0 102 1 105 28
125 33 25 45 26 80 4z m-136 -240 c1 -104 2 -271 4 -373 1 -102 -1 -218 -4
-257 -5 -72 -5 -73 -33 -73 l-29 0 0 429 0 430 22 15 c12 9 26 16 30 16 5 0 9
-84 10 -187z m-182 -29 c0 -41 -3 -74 -6 -74 -3 0 -26 16 -51 35 -25 19 -50
35 -54 35 -5 0 -9 4 -9 10 0 13 101 80 112 74 4 -3 8 -39 8 -80z m476 -171
c-2 -2 -19 3 -38 13 -44 23 -133 23 -177 1 -19 -9 -38 -17 -43 -17 -4 0 -8 38
-8 85 0 47 3 85 8 85 4 0 25 -7 47 -15 53 -19 110 -18 165 3 l45 18 3 -84 c2
-47 1 -87 -2 -89z m-32 -20 l36 -17 0 -102 0 -103 -46 19 c-50 22 -130 45
-186 55 l-38 6 0 59 c0 57 1 60 32 76 73 38 134 40 202 7z"/>
<path d="M2210 2033 l0 -188 46 1 46 1 2 85 c1 89 13 118 47 118 29 0 39 -32
39 -123 0 -76 2 -85 18 -82 9 2 32 4 51 4 l34 1 -6 111 c-5 97 -9 114 -28 135
-27 28 -92 33 -126 9 -30 -21 -37 -6 -28 61 l6 54 -50 0 -51 0 0 -187z"/>
<path d="M2560 2185 l0 -36 48 3 c45 3 47 4 47 33 0 29 -2 30 -47 33 l-48 3 0
-36z"/>
<path d="M2730 2035 l0 -185 50 0 50 0 0 185 0 185 -50 0 -50 0 0 -185z"/>
<path d="M1840 2025 l0 -175 55 0 55 0 0 55 0 55 58 0 c71 0 102 15 124 60 22
43 23 82 2 121 -23 45 -67 59 -189 59 l-105 0 0 -175z m195 65 c9 -30 -12 -50
-51 -50 -32 0 -34 2 -34 35 0 34 1 35 39 35 31 0 41 -4 46 -20z"/>
<path d="M3250 2025 l0 -175 56 0 57 0 -8 113 c-4 61 -4 109 0 106 3 -4 19
-53 34 -110 l28 -104 45 -3 44 -3 31 108 31 108 1 -107 1 -108 35 -1 c19 -1
43 -2 53 -3 15 -1 17 15 20 177 l2 178 -77 -3 -77 -3 -26 -105 -26 -104 -23
79 c-12 44 -26 91 -30 105 -7 24 -12 25 -89 28 l-82 3 0 -176z"/>
<path d="M2560 1986 l0 -134 45 -4 45 -3 0 137 0 138 -45 0 -45 0 0 -134z"/>
<path d="M2953 2100 c-90 -54 -82 -206 12 -246 47 -19 112 -17 161 5 34 15 45
28 59 65 18 46 15 98 -7 139 -30 56 -159 77 -225 37z m121 -53 c22 -16 26 -98
6 -122 -18 -22 -67 -19 -80 4 -17 33 -12 89 10 111 23 23 39 25 64 7z"/>
<path d="M3785 2108 c-27 -14 -45 -38 -45 -60 0 -15 8 -18 44 -18 26 0 48 6
56 15 23 28 80 13 80 -22 0 -9 -16 -13 -50 -13 -66 0 -117 -22 -130 -55 -16
-41 -12 -64 15 -90 29 -30 101 -34 145 -9 26 16 29 16 51 0 24 -16 65 -21 93
-10 24 9 21 60 -4 67 -18 5 -20 14 -20 75 0 86 -5 99 -41 117 -33 18 -164 20
-194 3z m133 -165 c-4 -37 -50 -55 -75 -30 -26 26 1 49 65 56 9 1 12 -8 10
-26z"/>
<path d="M4100 1930 l0 -190 50 0 50 0 0 66 0 65 22 -15 c12 -9 38 -16 58 -16
68 0 110 53 110 139 0 60 -11 92 -41 120 -31 29 -104 29 -135 0 l-22 -21 -7
21 c-5 17 -15 21 -46 21 l-39 0 0 -190z m178 108 c18 -18 15 -94 -4 -112 -47
-48 -99 38 -64 105 12 21 50 25 68 7z"/>
</g>
</svg>
